<?xml version="1.0" encoding="UTF-8"?><svg id="a" xmlns="http://www.w3.org/2000/svg" viewBox="0 0 2654 512"><g><path d="M344.554,256c47.3387-46.3823,48.114-122.3581,1.7318-169.6968-22.5707-23.0361-53.4637-36.0175-85.7143-36.0175h-59.4286c-5.0494,0-9.1428-4.0934-9.1428-9.1428v-13.7143c0-6.3118-5.1168-11.4286-11.4286-11.4286s-11.4286,5.1168-11.4286,11.4286V484.5714c0,6.3118,5.1168,11.4286,11.4286,11.4286s11.4286-5.1168,11.4286-11.4286v-13.7143c0-5.0494,4.0934-9.1428,9.1428-9.1428h59.4286c66.2742,0,120-53.7258,120-120,0-32.2505-12.9814-63.1436-36.0175-85.7143Zm-83.9825,137.1429h-59.4286c-5.0494,0-9.1428-4.0934-9.1428-9.1429v-84.5714c0-5.0495,4.0934-9.1429,9.1428-9.1429h59.4286c28.4032,0,51.4286,23.0254,51.4286,51.4286s-23.0254,51.4286-51.4286,51.4286Zm0-171.4286h-59.4286c-5.0494,0-9.1428-4.0934-9.1428-9.1429v-84.5714c0-5.0494,4.0934-9.1429,9.1428-9.1429h59.4286c28.4032,0,51.4286,23.0254,51.4286,51.4286s-23.0254,51.4286-51.4286,51.4286Z" style="stroke:#000; stroke-linecap:round; stroke-linejoin:round; stroke-width:.7087px;"/><g id="b"><path d="M123.4286,27.4286c0-6.3118,5.1167-11.4286,11.4286-11.4286s11.4286,5.1167,11.4286,11.4286V484.5714c0,6.3118-5.1167,11.4286-11.4286,11.4286s-11.4286-5.1167-11.4286-11.4286V27.427" style="stroke:#000; stroke-linecap:round; stroke-linejoin:round; stroke-width:.7087px;"/></g><g id="c"><path d="M77.7143,27.4286c0-6.3118,5.1167-11.4286,11.4286-11.4286s11.4286,5.1167,11.4286,11.4286V484.5714c0,6.3118-5.1167,11.4286-11.4286,11.4286s-11.4286-5.1167-11.4286-11.4286V27.427" style="stroke:#000; stroke-linecap:round; stroke-linejoin:round; stroke-width:.7087px;"/></g><g id="d"><path d="M32,27.4286c0-6.3118,5.1167-11.4286,11.4286-11.4286s11.4286,5.1167,11.4286,11.4286V484.5714c0,6.3118-5.1167,11.4286-11.4286,11.4286s-11.4286-5.1167-11.4286-11.4286V27.427" style="stroke:#000; stroke-linecap:round; stroke-linejoin:round; stroke-width:.7087px;"/></g></g><g><path d="M408.3708,440.7798L586.0811,56.2158c1.7144-3.4288,4.5722-6.2859,9.714-6.2859h5.7142c5.7142,0,7.9996,2.8571,9.714,6.2859l175.9972,384.564c3.4288,7.4273-1.1434,14.8572-9.714,14.8572h-49.7135c-8.5706,0-12.5718-3.4288-16.5716-11.4284l-27.9987-61.713h-170.854l-28.0001,61.713c-2.2854,5.7129-7.4273,11.4284-16.5703,11.4284h-49.7135c-8.5706,0-13.1428-7.43-9.714-14.8572Zm246.8519-121.7115l-57.1408-125.7127h-1.7144l-55.9988,125.7127h114.8539Z"/><path d="M815.7863,399.6369l20.5714-35.4273c4.5708-7.9996,14.2849-7.9996,19.4281-3.9998,2.8564,1.7144,49.1412,35.4287,86.2829,35.4287,29.7145,0,51.9989-19.4294,51.9989-43.9993,0-29.1421-24.5699-49.1425-72.569-68.5706-53.7133-21.7148-107.4267-55.9988-107.4267-123.4266,0-50.8556,37.7141-109.7121,128.5691-109.7121,58.2842,0,102.8545,29.7138,114.2829,38.2851,5.7142,3.4288,7.4286,13.1428,3.4288,18.857l-21.7135,32.5709c-4.5722,6.8569-13.1428,11.4284-20.0004,6.8569-4.5708-2.8571-47.9991-31.4282-79.4266-31.4282-32.5709,0-50.2845,21.7141-50.2845,39.9995,0,26.8567,21.1425,45.142,67.4272,63.9984,55.4277,22.2852,119.4261,55.4271,119.4261,129.1408,0,58.8565-50.8556,113.1395-131.4256,113.1395-71.9994,0-114.2843-33.7129-125.7127-44.569-5.1418-5.1432-7.9996-8.001-2.8564-17.144Z"/><path d="M1125.4877,399.6369l20.5714-35.4273c4.5708-7.9996,14.2849-7.9996,19.4281-3.9998,2.8564,1.7144,49.1412,35.4287,86.2829,35.4287,29.7145,0,51.9989-19.4294,51.9989-43.9993,0-29.1421-24.5699-49.1425-72.569-68.5706-53.7133-21.7148-107.4267-55.9988-107.4267-123.4266,0-50.8556,37.7141-109.7121,128.5691-109.7121,58.2842,0,102.8545,29.7138,114.2829,38.2851,5.7142,3.4288,7.4286,13.1428,3.4288,18.857l-21.7135,32.5709c-4.5722,6.8569-13.1428,11.4284-20.0004,6.8569-4.5708-2.8571-47.9991-31.4282-79.4266-31.4282-32.5709,0-50.2845,21.7141-50.2845,39.9995,0,26.8567,21.1425,45.142,67.4272,63.9984,55.4277,22.2852,119.4261,55.4271,119.4261,129.1408,0,58.8565-50.8556,113.1395-131.4256,113.1395-71.9994,0-114.2843-33.7129-125.7127-44.569-5.1418-5.1432-7.9996-8.001-2.8564-17.144Z"/><path d="M1458.617,66.5015c0-5.7142,4.5708-10.8574,10.8574-10.8574h52.57c5.7142,0,10.8574,5.1432,10.8574,10.8574V387.0665h145.7104c6.2866,0,10.8574,5.1432,10.8574,10.8561v46.8571c0,5.7142-4.5708,10.8574-10.8574,10.8574h-209.1378c-6.2866,0-10.8574-5.1432-10.8574-10.8574V66.5015Z"/><path d="M1747.1746,66.5015c0-5.7142,5.1432-10.8574,10.8574-10.8574h53.141c5.7142,0,10.8574,5.1432,10.8574,10.8574V444.7796c0,5.7142-5.1432,10.8574-10.8574,10.8574h-53.141c-5.7142,0-10.8574-5.1432-10.8574-10.8574V66.5015Z"/><path d="M1926.0202,60.2156c0-5.7142,5.1432-10.2857,10.8574-10.2857h14.2849l237.7102,252.5668h.571V66.5015c0-5.7142,4.5708-10.8574,10.8574-10.8574h52.57c5.7142,0,10.8561,5.1432,10.8561,10.8574V451.0649c0,5.7142-5.1418,10.285-10.8561,10.285h-13.7138l-238.8522-262.2801h-.5724v245.7098c0,5.7142-4.5708,10.8574-10.8561,10.8574h-51.9989c-5.7142,0-10.8574-5.1432-10.8574-10.8574V60.2156Z"/><path d="M2367.7195,66.5015c0-5.7142,4.5708-10.8574,10.8574-10.8574h232.5657c6.2866,0,10.8574,5.1432,10.8574,10.8574v46.8557c0,5.7142-4.5708,10.8574-10.8574,10.8574h-169.1383v93.7122h141.1396c5.7142,0,10.8574,5.1425,10.8574,10.8567v47.4274c0,6.2852-5.1432,10.8574-10.8574,10.8574h-141.1396v99.9981h169.1383c6.2866,0,10.8574,5.1432,10.8574,10.8561v46.8571c0,5.7142-4.5708,10.8574-10.8574,10.8574h-232.5657c-6.2866,0-10.8574-5.1432-10.8574-10.8574V66.5015Z"/></g></svg>