<?xml version="1.0" standalone="no"?>
<!DOCTYPE svg PUBLIC "-//W3C//DTD SVG 20010904//EN"
 "http://www.w3.org/TR/2001/REC-SVG-20010904/DTD/svg10.dtd">
<svg version="1.0" xmlns="http://www.w3.org/2000/svg"
 width="2134.000000pt" height="2134.000000pt" viewBox="0 0 2134.000000 2134.000000"
 preserveAspectRatio="xMidYMid meet">
<metadata>
Created by potrace 1.14, written by Peter Selinger 2001-2017
</metadata>
<g transform="translate(0.000000,2134.000000) scale(0.100000,-0.100000)"
fill="#000000" stroke="none">
<path d="M3780 20679 c-77 -15 -187 -76 -249 -139 -62 -63 -103 -135 -126
-225 -13 -53 -15 -1069 -15 -9645 0 -9306 1 -9587 19 -9652 59 -215 250 -358
476 -358 217 0 406 145 469 359 15 50 16 896 16 9657 0 9588 0 9602 -20 9667
-74 239 -321 384 -570 336z"/>
<path d="M5673 20676 c-88 -22 -164 -66 -234 -135 -74 -75 -113 -147 -135
-251 -12 -60 -14 -1372 -12 -9652 l3 -9583 23 -59 c57 -151 162 -259 300 -308
72 -26 197 -34 271 -18 193 42 348 204 380 397 9 50 11 2575 9 9648 l-3 9580
-23 59 c-30 81 -73 144 -136 204 -116 110 -287 156 -443 118z"/>
<path d="M7590 20679 c-25 -5 -78 -25 -119 -45 -126 -62 -220 -177 -256 -315
-13 -47 -15 -1364 -15 -9644 0 -8585 2 -9597 15 -9650 56 -214 252 -365 474
-365 137 0 250 47 347 144 65 65 102 127 128 215 15 50 16 855 16 9651 0 8589
-2 9602 -15 9655 -23 85 -62 152 -130 220 -116 116 -281 166 -445 134z"/>
<path d="M9483 20676 c-88 -22 -164 -66 -234 -135 -75 -76 -112 -145 -134
-248 -13 -64 -15 -1177 -13 -9655 l3 -9583 23 -59 c43 -115 101 -190 196 -256
99 -67 254 -97 375 -70 186 40 337 192 376 377 11 51 15 151 15 405 0 314 1
341 20 392 39 103 109 174 218 221 46 20 74 20 1527 26 1576 6 1527 4 1845 54
944 149 1820 559 2534 1186 139 122 418 405 522 529 282 336 484 647 674 1035
246 502 391 974 470 1535 58 406 53 987 -10 1407 -157 1032 -604 1951 -1325
2719 l-114 121 70 69 c181 178 405 456 580 718 478 716 754 1512 829 2391 13
155 13 625 0 780 -82 961 -413 1845 -975 2600 -280 377 -652 749 -1037 1036
-643 480 -1427 808 -2221 930 -350 54 -289 52 -1862 58 l-1470 6 -57 27 c-76
35 -148 104 -184 175 l-29 58 -6 385 c-5 364 -6 388 -27 444 -90 242 -339 380
-579 322z m3787 -4329 c558 -103 1032 -390 1353 -820 293 -392 428 -797 428
-1282 0 -410 -99 -765 -308 -1109 -317 -522 -840 -876 -1458 -989 -120 -22
-122 -22 -1525 -22 l-1405 0 -57 28 c-74 36 -139 101 -175 175 l-28 57 -3
1830 c-2 1329 0 1844 8 1882 23 109 131 223 241 258 37 12 272 14 1439 12
1278 -2 1403 -4 1490 -20z m-150 -7128 c482 -44 928 -246 1274 -579 398 -382
622 -863 655 -1404 32 -525 -118 -1014 -441 -1438 -273 -360 -697 -639 -1143
-753 -263 -68 -210 -66 -1740 -63 l-1380 3 -63 34 c-75 41 -125 94 -161 170
l-26 56 0 1860 0 1860 32 60 c49 95 144 171 240 194 56 13 2611 13 2753 0z"/>
</g>
</svg>
